<svg viewBox="0 0 64 64" xmlns="http://www.w3.org/2000/svg">
  <circle cx="32" cy="32" r="32" fill="#F7931A"/>
  <path d="M46.1 27.4c.6-4.2-2.6-6.5-7-8l1.4-5.7-3.5-.9-1.4 5.6c-.9-.2-1.9-.4-2.8-.7l1.4-5.6-3.5-.9-1.4 5.7c-.8-.2-1.5-.3-2.2-.5l-4.8-1.2-.9 3.7s2.6.6 2.5.6c1.4.4 1.7 1.3 1.6 2l-1.6 6.6c.1 0 .2.1.4.1l-.4-.1-2.3 9.1c-.2.4-.6 1.1-1.5.8 0 0-2.5-.6-2.5-.6l-1.7 4 4.5 1.1c.8.2 1.7.4 2.5.6l-1.5 5.8 3.5.9 1.4-5.7c1 .3 1.9.5 2.8.7l-1.4 5.7 3.5.9 1.5-5.8c5.8 1.1 10.2.7 12-4.6 1.5-4.3-.1-6.7-3.2-8.3 2.2-.5 3.9-2 4.4-5.1zm-7.8 10.9c-1.1 4.3-8.2 2-10.5 1.4l1.9-7.5c2.3.6 9.7 1.7 8.6 6.1zm1-11c-1 3.9-6.9 1.9-8.8 1.5l1.7-6.8c1.9.5 8.2 1.4 7.1 5.3z" fill="#fff"/>
</svg>
